<?xml version="1.0" encoding="UTF-8" standalone="no"?>
<!-- Designed by Vexels.com - 2016 All Rights Reserved - https://vexels.com/terms-and-conditions/  -->

<svg
   xmlns:dc="http://purl.org/dc/elements/1.1/"
   xmlns:cc="http://creativecommons.org/ns#"
   xmlns:rdf="http://www.w3.org/1999/02/22-rdf-syntax-ns#"
   xmlns:svg="http://www.w3.org/2000/svg"
   xmlns="http://www.w3.org/2000/svg"
   xmlns:sodipodi="http://sodipodi.sourceforge.net/DTD/sodipodi-0.dtd"
   xmlns:inkscape="http://www.inkscape.org/namespaces/inkscape"
   version="1.1"
   id="Layer_1"
   x="0px"
   y="0px"
   width="1200px"
   height="1200px"
   viewBox="0 0 1200 1200"
   enable-background="new 0 0 1200 1200"
   xml:space="preserve"
   sodipodi:docname="pause.svg"
   inkscape:version="0.92.2 5c3e80d, 2017-08-06"><metadata
     id="metadata3831"><rdf:RDF><cc:Work
         rdf:about=""><dc:format>image/svg+xml</dc:format><dc:type
           rdf:resource="http://purl.org/dc/dcmitype/StillImage" /><dc:title></dc:title></cc:Work></rdf:RDF></metadata><defs
     id="defs3829" /><sodipodi:namedview
     pagecolor="#ffffff"
     bordercolor="#666666"
     borderopacity="1"
     objecttolerance="10"
     gridtolerance="10"
     guidetolerance="10"
     inkscape:pageopacity="0"
     inkscape:pageshadow="2"
     inkscape:window-width="1026"
     inkscape:window-height="712"
     id="namedview3827"
     showgrid="false"
     inkscape:zoom="0.40666667"
     inkscape:cx="556.96721"
     inkscape:cy="600"
     inkscape:window-x="0"
     inkscape:window-y="0"
     inkscape:window-maximized="0"
     inkscape:current-layer="Layer_1" /><g
     id="g3824"
     style="fill:#ffffff;fill-opacity:1"><g
       id="g3820"
       style="fill:#ffffff;fill-opacity:1"><path
         fill="#575756"
         d="M745.271,796.57c0,25.209-20.347,45.556-45.519,45.556l0,0c-25.154,0-45.553-20.347-45.553-45.556V403.426    c0-25.173,20.398-45.626,45.553-45.626l0,0c25.173,0,45.519,20.453,45.519,45.626V796.57z"
         id="path3816"
         style="fill:#ffffff;fill-opacity:1" /><path
         fill="#575756"
         d="M545.874,796.57c0,25.209-20.365,45.556-45.52,45.556l0,0c-25.173,0-45.626-20.347-45.626-45.556V403.426    c0-25.173,20.453-45.626,45.626-45.626l0,0c25.154,0,45.52,20.453,45.52,45.626V796.57z"
         id="path3818"
         style="fill:#ffffff;fill-opacity:1" /></g><path
       fill="#575756"
       d="M600.064,50.046C296.22,50.046,50,296.266,50,599.982c0,303.753,246.22,549.973,550.064,549.973   c303.716,0,549.936-246.22,549.936-549.973C1150,296.266,903.78,50.046,600.064,50.046z M600.064,1041.611   c-243.917,0-441.615-197.735-441.615-441.629c0-243.825,197.698-441.56,441.615-441.56c243.789,0,441.487,197.735,441.487,441.56   C1041.551,843.877,843.853,1041.611,600.064,1041.611z"
       id="path3822"
       style="fill:#ffffff;fill-opacity:1" /></g></svg>