<?xml version="1.0" encoding="utf-8"?>
<!--Designed by Vexels.com - 2017 All Rights Reserved - https://vexels.com/terms-and-conditions/-->
<svg version="1.1" id="Layer_1" xmlns="http://www.w3.org/2000/svg" xmlns:xlink="http://www.w3.org/1999/xlink" x="0px" y="0px"
	 viewBox="0 0 1200 1200" enable-background="new 0 0 1200 1200" xml:space="preserve">
<g>
	<path d="M483.874,869.631c3.211,3.211,8.178,3.889,12.11,1.618c103.002-59.492,209.076-140.753,308.808-240.484
		C992.836,442.722,1115.256,232.122,1149.791,62.1c1.442-7.101-4.79-13.333-11.891-11.891
		C967.878,84.744,757.279,207.164,569.234,395.208C469.503,494.94,388.242,601.014,328.75,704.016
		c-2.271,3.932-1.593,8.899,1.618,12.11L483.874,869.631z"/>
	<g>
		<path d="M504.045,893.359c17.068,22.848,80.028,120.836,14.72,248.972c-2.552,5.006,3.5,9.975,7.932,6.521
			c49.302-38.415,175.263-158.556,155.18-371.149c-0.404-4.278-5.484-6.311-8.719-3.484
			c-21.388,18.692-85.681,71.874-167.16,111.241C503.005,886.906,502.055,890.695,504.045,893.359z"/>
		<path d="M306.641,695.955c-22.848-17.068-120.836-80.028-248.972-14.72c-5.006,2.552-9.975-3.5-6.521-7.932
			c38.415-49.302,158.556-175.263,371.149-155.18c4.278,0.404,6.311,5.484,3.484,8.719c-18.692,21.388-71.874,85.681-111.241,167.16
			C313.094,696.995,309.305,697.945,306.641,695.955z"/>
	</g>
	<g>
		<path d="M259.439,1077.085c-4.475-4.475-4.475-11.73,0-16.205l36.505-36.505c4.475-4.475,11.73-4.475,16.205,0
			c4.475,4.475,4.475,11.73,0,16.205l-36.505,36.505C271.169,1081.56,263.914,1081.56,259.439,1077.085z"/>
		<path d="M319.135,1017.389c-4.475-4.475-4.475-11.73,0-16.205l125.461-125.461c4.475-4.475,11.73-4.475,16.205,0
			s4.475,11.73,0,16.205L335.34,1017.389C330.865,1021.864,323.61,1021.864,319.135,1017.389z"/>
		<path d="M191.605,1079.828c0,0,0,0-0.001-0.001c-4.475-4.475-4.472-11.73,0.002-16.205l25.795-25.795
			c4.475-4.475,11.73-4.477,16.205-0.002c4.475,4.475,4.477,11.73,0.002,16.205l-25.8,25.8
			C203.335,1084.303,196.078,1084.302,191.605,1079.828z"/>
		<path d="M244.835,1026.598L244.835,1026.598c-4.475-4.475-4.475-11.73,0-16.205L412.05,843.178c4.475-4.475,11.73-4.475,16.205,0
			s4.475,11.73,0,16.205L261.04,1026.598C256.565,1031.073,249.31,1031.073,244.835,1026.598z"/>
		<path d="M133.97,1066.03c-4.475-4.475-4.475-11.73,0-16.205l105.136-105.136c4.475-4.475,11.73-4.475,16.205,0
			c4.475,4.475,4.475,11.73,0,16.205L150.175,1066.03C145.7,1070.505,138.445,1070.505,133.97,1066.03z"/>
		<path d="M101.033,1098.967c-4.475-4.475-4.475-11.73,0-16.205l8.45-8.45c4.475-4.475,11.73-4.475,16.205,0
			c4.475,4.475,4.475,11.73,0,16.205l-8.45,8.45C112.763,1103.442,105.508,1103.442,101.033,1098.967z"/>
		<path d="M267.407,932.593c-4.475-4.475-4.475-11.73,0-16.205l108.927-108.927c4.475-4.475,11.73-4.475,16.205,0
			s4.475,11.73,0,16.205L283.612,932.593C279.137,937.068,271.882,937.068,267.407,932.593z"/>
		<path d="M124.328,1008.676c-4.475-4.475-4.475-11.73,0-16.205l134.9-134.9c4.475-4.475,11.73-4.475,16.205,0
			c4.475,4.475,4.475,11.73,0,16.205l-134.9,134.9C136.058,1013.151,128.803,1013.151,124.328,1008.676z"/>
		<path d="M293.263,839.741c-4.475-4.475-4.475-11.73,0-16.205l49.572-49.572c4.475-4.475,11.73-4.475,16.205,0
			s4.475,11.73,0,16.205l-49.572,49.572C304.994,844.216,297.738,844.216,293.263,839.741z"/>
		<path d="M115.007,948.47c-4.475-4.475-4.475-11.73,0-16.205l62.495-62.495c4.475-4.475,11.73-4.476,16.204-0.001
			c4.475,4.475,4.476,11.731,0.001,16.206l-62.495,62.495C126.737,952.945,119.481,952.945,115.007,948.47z"/>
		<path d="M202.797,860.68c-4.475-4.475-4.475-11.73,0-16.205L308.072,739.2c4.475-4.475,11.73-4.475,16.205,0
			c4.475,4.475,4.475,11.73,0,16.205L219.002,860.68C214.527,865.154,207.272,865.154,202.797,860.68z"/>
	</g>
	<circle fill="#FFFFFF" cx="827.207" cy="372.793" r="91.67"/>
	<path d="M893.197,385.349c1.034-6.331-1.852-12.661-7.294-16.04c-5.449-3.381-12.399-3.149-17.612,0.589
		c-19.788,14.193-38.112,21.196-56.018,21.405c-8.076,0.095-15.97-1.382-24.136-4.515c-6.359-2.44-13.565-0.548-17.907,4.699
		c-4.342,5.248-4.851,12.681-1.263,18.471c2.746,4.432,6.003,8.544,9.681,12.221c26.377,26.377,69.297,26.378,95.675,0
		C884.376,412.126,890.903,399.39,893.197,385.349z"/>
</g>
</svg>
